:FULLY-SPECIFIED
:FORCE-ALL-JOINTS-BE-3DOF
:DEGREES
404
root 9.68128 16.8798 20.4359 6.53859 -1.60772 -7.68566
lfemur -43.1052 -3.48558 -8.68845
ltibia 21.0575 0 0
lfoot -16.0751 13.5279 0
ltoes -12.4951 0 0
rfemur 17.565 5.90255 33.2752
rtibia -3.18055e-15 0 0
rfoot -7.76597 6.94901 0
rtoes -10.2721 0 0
lowerback -8.19425 3.26454 3.35722
upperback 0.264259 3.82586 4.12036
thorax 4.80855 1.9256 2.87989
lowerneck -19.3153 -6.12976 -13.396
upperneck 21.2157 -7.82942 13.0732
head 11.1486 -3.15556 5.82563
lclavicle 1.40392e-14 -2.70347e-14 0
lhumerus -53.4635 -9.27159 96.3703
lradius 27.1029 0 0
lwrist 8.23398 0 0
lhand -10.3618 -26.2649 0
lfingers 7.12502 0 0
lthumb 15.6352 3.1233 0
rclavicle 1.40392e-14 -2.70347e-14 0
rhumerus -27.0111 15.0684 -84.832
rradius 39.4923 0 0
rwrist -17.8837 0 0
rhand -30.2602 -21.0399 0
rfingers 7.12502 0 0
rthumb -3.56874 -50.9897 0
405
root 9.70003 16.8814 20.5842 6.57211 -1.70415 -7.62729
lfemur -43.0799 -3.49058 -8.82858
ltibia 20.7403 0 0
lfoot -15.8986 13.4437 0
ltoes -12.3273 0 0
rfemur 17.6929 5.79348 33.1027
rtibia 0.463696 0 0
rfoot -7.11706 6.86616 0
rtoes -10.3286 0 0
lowerback -8.18313 3.29773 3.31915
upperback 0.202111 3.87387 4.08411
thorax 4.73578 1.95062 2.86469
lowerneck -19.2638 -6.11875 -13.4368
upperneck 21.2336 -7.81417 13.0901
head 11.1452 -3.15205 5.84288
lclavicle 1.43528e-14 -2.70384e-14 0
lhumerus -53.3959 -9.02292 96.2135
lradius 26.9435 0 0
lwrist 7.92607 0 0
lhand -10.299 -26.2702 0
lfingers 7.12502 0 0
lthumb 15.6957 3.11402 0
rclavicle 1.43528e-14 -2.70384e-14 0
rhumerus -27.2308 14.9172 -84.942
rradius 39.2306 0 0
rwrist -17.7135 0 0
rhand -30.1798 -21.108 0
rfingers 7.12502 0 0
rthumb -3.49108 -51.0587 0
406
root 9.71998 16.8839 20.7348 6.61274 -1.79777 -7.54142
lfemur -43.0374 -3.45548 -9.02982
ltibia 20.5293 0 0
lfoot -15.6775 13.3412 0
ltoes -12.0879 0 0
rfemur 17.7326 5.66746 32.8861
rtibia 1.13025 0 0
rfoot -6.38079 6.75965 0
rtoes -10.4134 0 0
lowerback -8.15975 3.32899 3.26226
upperback 0.122476 3.92182 4.0352
thorax 4.63736 1.97575 2.84543
lowerneck -19.2024 -6.10883 -13.4844
upperneck 21.2535 -7.80091 13.1107
head 11.1411 -3.14992 5.86258
lclavicle 1.46577e-14 -2.68826e-14 0
lhumerus -53.3117 -8.75827 96.0386
lradius 26.7569 0 0
lwrist 7.57801 0 0
lhand -10.2418 -26.2578 0
lfingers 7.12502 0 0
lthumb 15.7509 3.12269 0
rclavicle 1.46577e-14 -2.68826e-14 0
rhumerus -27.5122 14.7544 -85.0689
rradius 38.9394 0 0
rwrist -17.5343 0 0
rhand -30.0809 -21.2094 0
rfingers 7.12502 0 0
rthumb -3.39559 -51.1614 0
407
root 9.74105 16.8873 20.8876 6.65986 -1.88837 -7.42969
lfemur -42.9778 -3.38276 -9.2884
ltibia 20.4182 0 0
lfoot -15.4153 13.2213 0
ltoes -11.7816 0 0
rfemur 17.688 5.52567 32.6283
rtibia 1.98682 0 0
rfoot -5.56491 6.63066 0
rtoes -10.5247 0 0
lowerback -8.12485 3.35812 3.18764
upperback 0.0266496 3.96931 3.97447
thorax 4.51512 2.00079 2.82243
lowerneck -19.1319 -6.09982 -13.5383
upperneck 21.2755 -7.78938 13.1346
head 11.1365 -3.14902 5.88446
lclavicle 1.49539e-14 -2.65766e-14 0
lhumerus -53.2108 -8.4796 95.8466
lradius 26.5453 0 0
lwrist 7.193 0 0
lhand -10.1901 -26.2291 0
lfingers 7.12502 0 0
lthumb 15.8007 3.14819 0
rclavicle 1.49539e-14 -2.65766e-14 0
rhumerus -27.8513 14.5808 -85.2116
rradius 38.6215 0 0
rwrist -17.3471 0 0
rhand -29.9653 -21.3414 0
rfingers 7.12502 0 0
rthumb -3.28394 -51.2951 0
